<svg xmlns="http://www.w3.org/2000/svg" version="1.1" xmlns:xlink="http://www.w3.org/1999/xlink" xmlns:svgjs="http://svgjs.dev/svgjs" width="2000" height="676" viewBox="0 0 2000 676"><g transform="matrix(1,0,0,1,-1.2106821513482373,-0.4714186858761309)"><svg viewBox="0 0 396 134" data-background-color="#ffffff" preserveAspectRatio="xMidYMid meet" height="676" width="2000" xmlns="http://www.w3.org/2000/svg" xmlns:xlink="http://www.w3.org/1999/xlink"><g id="tight-bounds" transform="matrix(1,0,0,1,0.2397150659669478,0.09461438166374592)"><svg viewBox="0 0 395.52 133.811938719065" height="133.811938719065" width="395.52"><g><svg viewBox="0 0 395.52 133.811938719065" height="133.811938719065" width="395.52"><g><svg viewBox="0 0 395.52 133.811938719065" height="133.811938719065" width="395.52"><g><svg viewBox="0 0 395.52 133.811938719065" height="133.811938719065" width="395.52"><g id="textblocktransform"><svg viewBox="0 0 395.52 133.811938719065" height="133.811938719065" width="395.52" id="textblock"><g><svg viewBox="0 0 395.52 133.811938719065" height="133.811938719065" width="395.52"><g transform="matrix(1,0,0,1,0,0)"><svg width="395.52" viewBox="0.9332790420287154 -27.167499650138627 130.4557655528314 44.135667379420184" height="133.811938719065" data-palette-color="#ecab55"><path d="M37.466 11.45v0c-1.383 0.324-2.692 0.052-3.93-0.816-1.238-0.874-2.423-2.089-3.554-3.646-1.123-1.552-2.174-3.175-3.153-4.87v0c-2.256-3.874-3.373-6.232-3.35-7.072v0c-1.394 3.202-2.619 5.878-3.677 8.029-1.056 2.157-1.947 3.794-2.671 4.908v0c-3.144 4.878-6.8 7.805-10.968 8.781v0c-1.24 0.29-2.326 0.271-3.259-0.058-0.931-0.323-1.538-1.088-1.821-2.296v0c-0.178-0.759-0.197-1.618-0.058-2.574 0.139-0.957 0.375-1.892 0.709-2.806 0.326-0.918 0.688-1.695 1.088-2.329v0c0.87-1.402 1.685-2.192 2.444-2.369v0c0.136-0.032 0.212-0.015 0.227 0.049v0c0.041 0.175-0.147 0.527-0.564 1.056v0c-0.981 1.25-1.72 2.597-2.217 4.042-0.497 1.445-0.625 2.683-0.383 3.715v0c0.451 1.928 2.025 2.522 4.72 1.781v0c4.407-1.21 9.315-8.028 14.725-20.454v0c0.311-0.689 0.594-1.19 0.85-1.504v0l-0.901-0.118c-0.408 0.274-0.749 0.442-1.021 0.507v0c-0.727 0.17-1.159-0.037-1.296-0.621v0c-0.185-0.792 0.229-1.433 1.244-1.925v0c0.615-0.329 1.527-0.234 2.737 0.284v0c0.99-1.827 1.952-3.579 2.888-5.257 0.931-1.669 1.813-3.064 2.646-4.183 0.825-1.124 1.546-1.759 2.163-1.903v0c0.831-0.195 1.335 0.088 1.513 0.848v0c0.073 0.312 0.07 0.648-0.01 1.008-0.078 0.368-0.221 0.576-0.429 0.625v0c-0.2 0.081-0.328 0.002-0.385-0.239v0c-0.041-0.175 0.014-0.407 0.166-0.696v0l-0.048-0.205c-0.049-0.208-0.153-0.348-0.314-0.419v0c-1.033-0.375-3.107 3.182-6.222 10.669v0c0.384-0.056 0.793-0.124 1.226-0.205 0.439-0.082 0.899-0.18 1.38-0.292v0c7.991-1.871 12.502-5.107 13.533-9.71v0c0.206-0.993 0.22-1.869 0.042-2.629v0c-0.356-1.519-1.374-2.681-3.055-3.485v0c-1.514-0.734-3.355-1.039-5.524-0.915-2.167 0.131-4.286 0.438-6.357 0.923v0c-4.583 1.073-9.164 3.47-13.743 7.192v0c-5.553 4.532-7.846 8.865-6.878 12.999v0c0.315 1.344 1.351 1.81 3.111 1.398v0c1.616-0.378 3.288-1.458 5.014-3.238v0c1.484-1.587 2.413-3.06 2.785-4.421v0c0.135-0.504 0.307-0.78 0.515-0.829v0c0.24-0.056 0.341 0.067 0.302 0.371v0c-0.204 2.081-1.281 4.079-3.228 5.993v0c-1.892 1.86-4.01 3.065-6.354 3.614v0c-2.791 0.653-4.293 0.06-4.504-1.781v0c-0.538-4.639 1.337-9.132 5.626-13.477v0c4.264-4.305 9.928-7.285 16.99-8.938v0c2.687-0.629 5.353-1 7.997-1.112 2.644-0.112 4.911 0.302 6.802 1.243v0c1.977 0.989 3.184 2.414 3.62 4.277v0c0.185 0.792 0.198 1.696 0.04 2.713v0c-0.276 1.482-0.904 2.837-1.883 4.066-0.986 1.23-2.201 2.326-3.647 3.287-1.454 0.956-3.025 1.776-4.713 2.46-1.694 0.691-3.368 1.23-5.024 1.617v0c-0.896 0.21-1.758 0.374-2.586 0.493-0.82 0.124-1.591 0.194-2.312 0.212v0c0.355 0.609 0.994 1.715 1.917 3.321 0.922 1.599 2.102 3.685 3.54 6.258v0c0.416 0.697 0.944 1.443 1.582 2.238 0.645 0.794 1.333 1.526 2.065 2.197 0.737 0.663 1.487 1.175 2.249 1.538 0.758 0.37 1.464 0.479 2.12 0.325v0c1.448-0.339 2.309-2.084 2.585-5.237v0c0.014-0.729 0.125-1.118 0.333-1.166v0c0.169-0.04 0.397 0.249 0.685 0.866v0c0.063 0.095 0.115 0.23 0.157 0.405v0c0.21 0.896-0.016 2.112-0.676 3.65v0c-0.83 2.187-2.037 3.466-3.621 3.837zM42.591 3.875v0c-1.128 0.11-2.185-0.153-3.171-0.787-0.986-0.634-1.537-1.549-1.653-2.743v0c-0.243-2.502 1.012-5.504 3.767-9.006v0c2.817-3.542 5.46-5.434 7.928-5.673v0c0.81-0.079 1.491 0.076 2.045 0.464 0.553 0.388 0.861 0.901 0.923 1.538v0c0.191 1.971-1.19 4.061-4.143 6.27v0c-2.616 1.962-4.876 3.036-6.781 3.221v0c-0.279 0.027-0.528 0.014-0.747-0.038v0c-0.439 1-0.606 2.031-0.503 3.093v0c0.178 1.831 1.13 2.663 2.855 2.496v0c1.765-0.172 3.923-1.573 6.473-4.206v0c1.982-1.934 3.636-3.943 4.961-6.028v0c0.277-0.456 0.539-0.695 0.784-0.719v0c0.212-0.021 0.329 0.075 0.349 0.287v0c0.021 0.212-0.093 0.525-0.341 0.938v0c-0.855 1.403-1.794 2.703-2.816 3.9-1.022 1.204-2.138 2.328-3.349 3.37v0c-2.522 2.234-4.716 3.442-6.581 3.623zM42.14-4.078v0c1.334-0.13 3.01-0.969 5.03-2.518v0c0.656-0.559 1.299-1.181 1.928-1.866 0.623-0.683 1.127-1.365 1.51-2.045 0.377-0.673 0.541-1.255 0.493-1.746v0c-0.044-0.458-0.438-0.651-1.181-0.579v0c-1.055 0.103-2.455 1.036-4.199 2.8v0c-0.84 0.865-1.641 1.797-2.401 2.795-0.754 0.998-1.38 2.036-1.878 3.116v0c0.213 0.053 0.445 0.067 0.698 0.043zM56.391 2.608v0c-1.126 0.024-2.157-0.317-3.093-1.024-0.935-0.707-1.416-1.66-1.442-2.859v0c-0.054-2.513 1.421-5.412 4.425-8.697v0c3.083-3.32 5.861-5.007 8.334-5.06v0c0.853-0.018 1.531 0.187 2.033 0.617 0.503 0.429 0.761 0.964 0.775 1.604v0c0.019 0.886-0.174 1.704-0.578 2.453v0c-0.48 0.93-1.18 1.406-2.1 1.425v0c-0.92 0.02-1.386-0.254-1.398-0.82v0c-0.008-0.387 0.209-0.975 0.653-1.765v0c0.482-0.824 0.723-1.252 0.722-1.286v0c-0.002-0.073-0.056-0.109-0.162-0.106v0c-0.991 0.128-2.355 0.884-4.092 2.268v0c-0.767 0.617-1.438 1.194-2.014 1.734-0.568 0.546-1.024 1.069-1.366 1.569v0l-2.005 3.074c-0.206 0.324-0.418 0.879-0.634 1.664-0.21 0.778-0.311 1.364-0.303 1.757v0c0.015 0.707 0.264 1.285 0.747 1.734 0.49 0.45 1.108 0.666 1.855 0.65v0c1.766-0.038 4.074-1.238 6.924-3.599v0c2.3-1.89 4.136-3.789 5.51-5.699v0c0.169-0.21 0.38-0.318 0.633-0.324v0c0.247-0.005 0.371 0.062 0.374 0.202v0c0.002 0.107-0.084 0.285-0.258 0.536v0c-1.891 2.621-4.126 4.899-6.706 6.835v0c-2.75 2.039-5.029 3.078-6.834 3.117zM79.014-16.093v0c-0.599-0.032-1.112-0.252-1.537-0.662-0.419-0.416-0.615-0.87-0.589-1.363v0c0.052-0.992 0.751-1.452 2.095-1.381v0c0.493 0.026 0.976 0.222 1.451 0.587 0.482 0.359 0.71 0.785 0.684 1.278v0c-0.022 0.426-0.272 0.797-0.75 1.112-0.477 0.309-0.928 0.452-1.354 0.429zM68.215 2.203v0c-0.779-0.041-1.411-0.331-1.897-0.871-0.486-0.54-0.694-1.462-0.625-2.767v0c0.039-0.739 0.254-1.585 0.645-2.539 0.384-0.954 0.859-1.914 1.423-2.879 0.565-0.965 1.114-1.82 1.648-2.567v0c2.154-3.111 3.867-4.653 5.141-4.626v0c0.32 0.017 0.702 0.171 1.147 0.462 0.445 0.291 0.66 0.596 0.643 0.915v0c0 0-1.436 1.66-4.309 4.98v0c-2.831 3.289-4.284 5.655-4.36 7.1v0c-0.06 1.132 0.353 1.721 1.239 1.767v0c0.566 0.03 1.311-0.168 2.234-0.593 0.924-0.432 1.902-0.995 2.933-1.687 1.031-0.687 2.018-1.429 2.962-2.228 0.944-0.805 1.717-1.545 2.32-2.22v0c0.377-0.441 0.704-0.744 0.979-0.91 0.275-0.159 0.45-0.237 0.523-0.233v0c0.14 0.007 0.204 0.118 0.193 0.331v0c-0.009 0.173-0.231 0.515-0.665 1.026-0.434 0.511-1.023 1.101-1.766 1.77v0c-0.897 0.801-1.884 1.67-2.961 2.607-1.077 0.931-2.233 1.711-3.469 2.341-1.241 0.622-2.567 0.896-3.978 0.821zM72.493 11.388v0c-1.351-1.024-1.859-2.656-1.525-4.898v0c0.36-2.413 2.953-6.246 7.78-11.499v0c4.619-5.075 7.697-7.73 9.236-7.966v0c0.143-0.012 0.269-0.021 0.377-0.024 0.107 0.003 0.214 0.012 0.32 0.027v0c0.593 0.088 0.794 0.779 0.601 2.071v0c0.287-0.207 0.751-0.38 1.392-0.52 0.647-0.133 1.307-0.22 1.98-0.261 0.668-0.049 1.162-0.066 1.484-0.052v0c1.442 0.141 2.588 0.659 3.438 1.554 0.85 0.902 1.184 1.963 1.002 3.183v0c-0.423 2.835-2.53 5.332-6.323 7.489v0c-3.439 1.954-6.349 2.754-8.729 2.4v0c-1.576-0.235-2.647-0.486-3.214-0.753v0c-0.801-0.369-1.562-1.143-2.283-2.321v0c-0.43 0.26-0.928 0.731-1.495 1.415-0.567 0.684-1.118 1.441-1.653 2.271-0.536 0.837-1.001 1.671-1.394 2.502-0.394 0.838-0.636 1.553-0.724 2.146v0c-0.089 0.6-0.052 1.118 0.112 1.554 0.171 0.437 0.336 0.845 0.495 1.226v0c-0.005 0.033-0.002 0.06 0.008 0.082 0.018 0.016 0.027 0.024 0.026 0.024v0c-0.027 0.178-0.145 0.315-0.354 0.413-0.209 0.09-0.395 0.069-0.557-0.063zM83.063 1.316v0c1.958 0.292 4.365-0.367 7.22-1.977v0c3.362-1.932 5.259-4.352 5.693-7.26v0c0.198-1.325-0.525-2.11-2.166-2.355v0c-1.503-0.224-2.954-0.103-4.351 0.362v0c-0.371 0.093-1.006 0.463-1.905 1.112-0.906 0.654-2.105 1.55-3.596 2.689v0c-3.19 2.457-4.845 4.087-4.965 4.891v0c-0.094 0.633 0.407 1.227 1.504 1.781v0c0.735 0.359 1.591 0.611 2.566 0.757zM98.058 5.648v0c-1.101-0.27-2.011-0.868-2.731-1.793-0.72-0.925-0.937-1.97-0.652-3.136v0c0.599-2.441 2.778-4.858 6.538-7.25v0c3.832-2.409 6.952-3.318 9.36-2.727v0c0.79 0.194 1.382 0.566 1.775 1.115 0.394 0.55 0.514 1.135 0.362 1.757v0c-0.472 1.923-2.467 3.438-5.986 4.544v0c-3.118 0.985-5.606 1.249-7.465 0.793v0c-0.272-0.067-0.503-0.161-0.692-0.283v0c-0.745 0.799-1.245 1.716-1.5 2.752v0c-0.439 1.787 0.184 2.887 1.867 3.3v0c1.722 0.423 4.223-0.185 7.502-1.824v0c2.511-1.168 4.737-2.517 6.677-4.045v0c0.412-0.338 0.739-0.478 0.978-0.419v0c0.207 0.051 0.285 0.18 0.234 0.387v0c-0.051 0.207-0.262 0.464-0.632 0.772v0c-1.271 1.04-2.588 1.956-3.949 2.747-1.363 0.798-2.789 1.488-4.277 2.07v0c-3.12 1.273-5.59 1.686-7.409 1.24zM100.267-2.007v0c1.301 0.319 3.161 0.083 5.58-0.71v0c0.804-0.311 1.616-0.684 2.437-1.121 0.815-0.438 1.515-0.915 2.102-1.43 0.578-0.51 0.926-1.005 1.044-1.484v0c0.11-0.447-0.198-0.759-0.923-0.937v0c-1.029-0.253-2.659 0.164-4.889 1.25v0c-1.079 0.538-2.143 1.152-3.192 1.843-1.042 0.692-1.976 1.464-2.803 2.318v0c0.183 0.12 0.398 0.211 0.644 0.271zM113.458 9.132v0c-1.571-0.536-2.555-1.452-2.95-2.749-0.404-1.293-0.526-2.94-0.365-4.942v0c-0.81 0.393-1.332 0.55-1.565 0.47v0c-0.164-0.056-0.201-0.216-0.111-0.482v0c0.069-0.202 0.214-0.36 0.437-0.474v0c0 0 0.602-0.372 1.807-1.117 1.213-0.749 3.161-1.711 5.845-2.888v0l8.343-3.769c1.157-0.542 2.071-0.942 2.743-1.198 0.666-0.259 1.116-0.349 1.349-0.27v0c1.073 0.366 1.472 0.949 1.2 1.751v0c-0.138 0.404-0.516 0.8-1.134 1.188v0c-0.472 0.29-0.82 0.516-1.046 0.679-0.227 0.169-0.361 0.264-0.403 0.285v0c-0.959 0.828-2.144 2.498-3.557 5.01v0c-1.046 1.848-1.918 3.364-2.619 4.548-0.706 1.182-1.238 2.029-1.595 2.541v0c1.418 0.448 2.955 0.486 4.61 0.114 1.662-0.37 3.603-1.24 5.824-2.61v0c0.093-0.046 0.228-0.112 0.406-0.199 0.184-0.085 0.342-0.105 0.475-0.06v0c0.202 0.069 0.275 0.185 0.219 0.349v0c-0.058 0.17-0.166 0.32-0.323 0.45-0.159 0.136-0.312 0.253-0.457 0.351v0c-1.463 0.882-2.78 1.563-3.952 2.044-1.171 0.481-2.338 0.773-3.5 0.877-1.158 0.112-2.474 0.086-3.946-0.077v0l-1.967 0.502c-0.539 0.154-1.133 0.195-1.785 0.12-0.647-0.066-1.308-0.213-1.983-0.444zM114.939 6.774v0c0.77 0.263 1.47 0.297 2.099 0.103v0c0.435-0.077 0.986-0.516 1.653-1.317 0.667-0.801 1.403-1.832 2.207-3.093v0c0.665-1.083 1.264-2.158 1.796-3.223 0.534-1.072 1.045-2.105 1.533-3.101v0l0.78-1.636c-0.963 0.305-2.212 0.795-3.745 1.47-1.539 0.672-3.079 1.398-4.62 2.175v0.001c-1.536 0.786-2.566 1.4-3.089 1.841-0.522 0.435-0.848 0.782-0.978 1.04v0c-0.589 1.293-0.626 2.477-0.113 3.554 0.515 1.07 1.341 1.799 2.477 2.186z" opacity="1" transform="matrix(1,0,0,1,0,0)" fill="#ecab55" class="wordmark-text-0" data-fill-palette-color="primary" id="text-0"></path></svg></g></svg></g></svg></g></svg></g><g></g></svg></g></svg></g><defs></defs></svg><rect width="395.52" height="133.811938719065" fill="none" stroke="none" visibility="hidden"></rect></g></svg></g></svg>